<svg xmlns="http://www.w3.org/2000/svg" version="1.1" xmlns:xlink="http://www.w3.org/1999/xlink" xmlns:svgjs="http://svgjs.dev/svgjs" viewBox="0 0 800 800"><g shape-rendering="crispEdges" stroke-linejoin="round" fill="none" stroke-width="1" stroke="grey"><polygon points="800,200 600,200 600,0"></polygon><polygon points="600,0 600,200 400,200"></polygon><polygon points="600,400 400,400 600,200"></polygon><polygon points="600,200 800,200 800,400"></polygon><polygon points="400,200 400,0 200,200"></polygon><polygon points="200,200 0,200 200,0"></polygon><polygon points="200,200 200,400 0,200"></polygon><polygon points="400,200 400,400 200,400"></polygon><polygon points="400,400 400,500 300,400"></polygon><polygon points="300,500 300,400 200,400"></polygon><polygon points="200,500 300,500 200,600"></polygon><polygon points="400,600 300,500 300,600"></polygon><polygon points="200,400 200,600 0,600"></polygon><polygon points="200,600 0,800 200,800"></polygon><polygon points="400,600 400,700 300,700"></polygon><polygon points="300,700 300,600 200,600"></polygon><polygon points="300,700 200,800 200,700"></polygon><polygon points="400,800 300,800 300,700"></polygon><polygon points="600,600 800,600 600,400"></polygon><polygon points="600,400 400,600 600,600"></polygon><polygon points="400,600 400,800 600,600"></polygon><polygon points="600,800 800,600 600,600"></polygon></g><g fill="grey" stroke-width="1" stroke="grey"></g></svg>
